<svg width="101" height="111" viewBox="0 0 101 111" fill="none" xmlns="http://www.w3.org/2000/svg">
<path d="M61.2538 110.968H39.9093V93.9196H61.2538C67.2699 93.8641 73.0211 91.4389 77.2558 87.1717C81.4903 82.9043 83.8662 77.1401 83.8662 71.1326C83.8662 65.1255 81.4903 59.3612 77.2558 55.0938C73.0211 50.8266 67.2699 48.4014 61.2538 48.3459H38.4328C36.1683 48.3459 33.9968 47.4479 32.3958 45.8492C30.7946 44.2505 29.895 42.0822 29.895 39.8215V31.2967H61.2516C69.3938 31.2973 77.3387 33.8003 84.0066 38.4653C83.6621 32.6725 81.1149 27.2301 76.8859 23.2496C72.6572 19.2692 67.0654 17.0513 61.2538 17.0492H39.9093C33.892 17.1046 28.1401 19.5302 23.9047 23.7982C19.6692 28.0663 17.2931 33.8315 17.2931 39.8399C17.2931 45.8483 19.6692 51.6135 23.9047 55.8815C28.1401 60.1496 33.892 62.5752 39.9093 62.6304H62.7459C65.0101 62.6304 67.1819 63.5287 68.7828 65.1274C70.3841 66.7261 71.2836 68.8941 71.2836 71.1551V79.6796H39.9248C31.7808 79.6808 23.8337 77.1778 17.1641 72.5113C17.5074 78.3073 20.0545 83.7536 24.2849 87.7376C28.5154 91.7211 34.0942 93.9162 39.9093 93.9196V110.968C32.9753 110.968 26.1765 109.175 20.1539 105.743C14.1313 102.312 9.10826 97.3727 5.57999 91.4125C4.4382 89.4979 3.79281 87.3292 3.70228 85.1025C3.61179 82.876 4.07899 80.6623 5.06164 78.6616C6.04427 76.6609 7.51127 74.9365 9.32976 73.6448C11.1483 72.3528 13.2608 71.5346 15.476 71.2634C8.89343 66.1825 4.06892 59.1717 1.6791 51.2143C-0.710704 43.257 -0.545906 34.7523 2.15038 26.8931C4.84668 19.034 9.93921 12.2147 16.7137 7.39172C23.4881 2.56874 31.6047 -0.015992 39.9248 7.44487e-05H61.2691C68.1992 0.0051865 75.0087 1.81225 81.0267 5.24336C87.0449 8.67446 92.0643 13.6113 95.5909 19.5678C96.7337 21.4831 97.3802 23.6527 97.4713 25.8803C97.5624 28.1078 97.0953 30.3229 96.1126 32.3248C95.1299 34.3268 93.6627 36.0522 91.8436 37.3451C90.0245 38.6377 87.9111 39.4569 85.6948 39.7284C92.2687 44.8113 97.0852 51.8198 99.4701 59.7724C101.855 67.725 101.689 76.2234 98.9941 84.0769C96.2996 91.9304 91.2124 98.7456 84.4448 103.568C77.6769 108.39 69.5681 110.978 61.2538 110.968Z" fill="#09AB78"/>
</svg>
