<svg width="384" height="111" viewBox="0 0 384 111" fill="none" xmlns="http://www.w3.org/2000/svg">
<mask id="mask0_8002_660" style="mask-type:luminance" maskUnits="userSpaceOnUse" x="0" y="0" width="101" height="111">
<path d="M0 0H100.992V110.94H0V0Z" fill="white"/>
</mask>
<g mask="url(#mask0_8002_660)">
<path d="M61.2895 110.968H39.9449V93.9196H61.2895C67.3055 93.8641 73.0567 91.4389 77.2915 87.1717C81.5259 82.9043 83.9019 77.1401 83.9019 71.1326C83.9019 65.1255 81.5259 59.3612 77.2915 55.0938C73.0567 50.8266 67.3055 48.4014 61.2895 48.3459H38.4685C36.2039 48.3459 34.0324 47.4479 32.4315 45.8492C30.8302 44.2505 29.9307 42.0822 29.9307 39.8215V31.2967H61.2873C69.4294 31.2973 77.3744 33.8003 84.0422 38.4653C83.6977 32.6725 81.1506 27.2301 76.9216 23.2496C72.6929 19.2692 67.101 17.0513 61.2895 17.0492H39.9449C33.9277 17.1046 28.1757 19.5302 23.9403 23.7982C19.7049 28.0663 17.3288 33.8315 17.3288 39.8399C17.3288 45.8483 19.7049 51.6135 23.9403 55.8815C28.1757 60.1496 33.9277 62.5752 39.9449 62.6304H62.7815C65.0457 62.6304 67.2176 63.5287 68.8185 65.1274C70.4197 66.7261 71.3193 68.8941 71.3193 71.1551V79.6796H39.9605C31.8165 79.6808 23.8694 77.1778 17.1998 72.5113C17.5431 78.3073 20.0902 83.7536 24.3206 87.7376C28.551 91.7211 34.1299 93.9162 39.9449 93.9196V110.968C33.011 110.968 26.2122 109.175 20.1896 105.743C14.167 102.312 9.14392 97.3727 5.61565 91.4125C4.47386 89.4979 3.82847 87.3292 3.73794 85.1025C3.64745 82.876 4.11465 80.6623 5.0973 78.6616C6.07993 76.6609 7.54693 74.9365 9.36542 73.6448C11.1839 72.3528 13.2964 71.5346 15.5117 71.2634C8.92909 66.1825 4.10458 59.1717 1.71476 51.2143C-0.675044 43.257 -0.510246 34.7523 2.18604 26.8931C4.88234 19.034 9.97487 12.2147 16.7493 7.39172C23.5238 2.56874 31.6404 -0.015992 39.9605 7.44487e-05H61.3047C68.2349 0.0051865 75.0444 1.81225 81.0623 5.24336C87.0806 8.67446 92.0999 13.6113 95.6266 19.5678C96.7693 21.4831 97.4158 23.6527 97.5069 25.8803C97.5981 28.1078 97.131 30.3229 96.1483 32.3248C95.1656 34.3268 93.6983 36.0522 91.8792 37.3451C90.0602 38.6377 87.9468 39.4569 85.7305 39.7284C92.3044 44.8113 97.1208 51.8198 99.5057 59.7724C101.891 67.725 101.724 76.2234 99.0298 84.0769C96.3353 91.9304 91.248 98.7456 84.4804 103.568C77.7125 108.39 69.6037 110.978 61.2895 110.968Z" fill="#09AB78"/>
</g>
<path d="M138.65 67.9307C139.406 68.554 140.206 69.1204 141.045 69.6259C141.895 70.1244 142.776 70.5696 143.682 70.9588C145.715 71.7736 147.894 72.1651 150.085 72.1098C151.391 72.1333 152.695 71.9908 153.966 71.6853C154.958 71.4256 155.898 70.9969 156.744 70.4184C157.418 69.9726 157.968 69.3646 158.344 68.6505C158.72 67.9364 158.91 67.1391 158.896 66.3323V65.9081C158.894 65.7566 158.884 65.6052 158.865 65.4547C158.842 65.3191 158.821 65.174 158.805 65.0305C158.79 64.8949 158.749 64.7634 158.685 64.6431C158.638 64.5158 158.598 64.3865 158.565 64.2554C158.324 63.6311 157.927 63.079 157.412 62.6513C156.534 61.8835 155.567 61.2228 154.532 60.683C153.138 59.9791 151.359 59.1919 149.196 58.3213C147.015 57.5469 144.905 56.5851 142.89 55.4462C141.222 54.5898 139.698 53.4788 138.373 52.1525C137.981 51.7331 137.617 51.2886 137.282 50.8215C136.98 50.3817 136.683 49.9128 136.403 49.4285C136.145 48.9408 135.922 48.435 135.736 47.9156C135.229 46.2578 134.984 44.5318 135.008 42.7988C134.997 40.9222 135.411 39.0676 136.221 37.3739C137.05 35.6311 138.276 34.1054 139.799 32.9179C141.47 31.6246 143.359 30.6406 145.378 30.012C147.759 29.3115 150.232 28.9746 152.714 29.0121C155.368 28.9841 158.016 29.2791 160.598 29.8897C162.957 30.4924 165.252 31.3236 167.45 32.3718L168.874 33.1294L168.269 34.5823L165.903 40.0322L165.176 41.7875L163.478 40.8498C163.022 40.5272 162.535 40.2532 162.022 40.0322C161.514 39.8131 160.969 39.5924 160.385 39.3657C159.801 39.139 159.172 38.926 158.504 38.6993C156.582 38.1442 154.591 37.8651 152.59 37.8699C151.396 37.8518 150.205 37.982 149.043 38.2576C148.149 38.4513 147.295 38.7993 146.521 39.2864C146.11 39.5401 145.742 39.8563 145.43 40.224C145.174 40.5285 144.977 40.8771 144.848 41.2528C144.74 41.6366 144.689 42.0342 144.697 42.4327C144.679 43.0499 144.772 43.6649 144.97 44.2498C145.15 44.7975 145.501 45.2729 145.971 45.6059C146.328 45.9114 146.702 46.1946 147.093 46.4547C147.623 46.776 148.17 47.0691 148.731 47.3323C149.033 47.4758 149.367 47.6346 149.732 47.8165C150.097 47.9988 150.491 48.181 150.914 48.361C151.336 48.5411 151.792 48.7252 152.272 48.9056C152.751 49.0856 153.302 49.2698 153.849 49.5117C156.204 50.3293 158.478 51.3632 160.641 52.6002C161.042 52.8266 161.429 53.0457 161.793 53.2667C162.14 53.4788 162.475 53.7112 162.794 53.9621C163.113 54.2043 163.431 54.4618 163.734 54.7197C164.037 54.9772 164.347 55.2039 164.613 55.4462C164.879 55.6954 165.132 55.9577 165.371 56.2326C166.567 57.4757 167.477 58.963 168.04 60.5919C168.602 62.1928 168.883 63.8785 168.872 65.575C168.912 67.8576 168.403 70.1171 167.385 72.1619C166.453 74.0781 165.095 75.7572 163.416 77.0714C161.644 78.484 159.601 79.5166 157.412 80.1053C155.02 80.7473 152.552 81.0629 150.075 81.0432C146.86 81.0747 143.66 80.6035 140.591 79.6462C137.969 78.8276 135.506 77.5683 133.308 75.9226L132.096 74.985L132.914 73.7121L136.159 68.3241L137.16 66.66L138.65 67.9307Z" fill="white"/>
<path d="M174.536 27.124H182.269V53.49L195.269 41.6545L196.542 40.5657L197.604 41.7767L201.125 45.6203L202.338 46.8913L201.065 48.042L188.817 58.7948L204.098 73.9919L205.311 75.2026L204.007 76.4136L199.853 80.4337L198.64 81.5844L197.487 80.3734L182.269 64.7832V80.2514H172.838V27.124H174.536Z" fill="white"/>
<path d="M213.657 80.2512H205.895V41.9274H215.326V80.2512H213.657ZM210.626 39.2926C209.845 39.3025 209.071 39.1516 208.351 38.8497C207.632 38.5477 206.982 38.101 206.443 37.5374C205.878 36.9989 205.431 36.3502 205.128 35.6313C204.826 34.9128 204.675 34.1396 204.684 33.3604C204.654 32.58 204.784 31.8017 205.066 31.073C205.347 30.3446 205.775 29.681 206.322 29.1231C206.889 28.5681 207.563 28.1342 208.303 27.8481C209.044 27.5619 209.835 27.4295 210.628 27.459C211.409 27.4542 212.183 27.6085 212.902 27.9123C213.622 28.195 214.273 28.6284 214.811 29.1831C215.367 29.7207 215.801 30.3707 216.084 31.0895C216.386 31.8087 216.54 32.5809 216.538 33.3604C216.568 34.1523 216.435 34.9423 216.149 35.6815C215.862 36.4207 215.427 37.0935 214.872 37.6593C214.313 38.2057 213.648 38.6325 212.917 38.9132C212.187 39.1942 211.408 39.3231 210.626 39.2926Z" fill="white"/>
<path d="M221.653 41.9273C222.486 41.925 223.318 41.9959 224.139 42.1384C224.891 42.2556 225.624 42.4693 226.322 42.7741C227.012 43.0545 227.664 43.4209 228.262 43.8648C228.844 44.3122 229.347 44.8545 229.748 45.4689C230.531 44.6976 231.407 44.0267 232.356 43.4714C232.638 43.2894 232.909 43.1227 233.175 42.956C233.446 42.7906 233.73 42.6487 234.025 42.5318C234.343 42.3962 234.662 42.274 234.964 42.1695C235.267 42.0648 235.608 41.9197 235.935 41.7818C236.658 41.5596 237.398 41.3973 238.148 41.2976C238.931 41.1751 239.722 41.1141 240.514 41.1154C242.748 41.1119 244.957 41.5739 247.002 42.4718C249.089 43.3542 250.961 44.676 252.49 46.3465C254.113 48.1459 255.369 50.2437 256.188 52.5229C256.516 53.3592 256.78 54.2194 256.976 55.0957C257.176 56.0054 257.327 56.9253 257.43 57.8508C257.551 58.8062 257.612 59.7686 257.611 60.7317C257.639 63.522 257.188 66.2965 256.277 68.9348C255.822 70.1204 255.285 71.2733 254.671 72.3852C254.075 73.4404 253.363 74.4253 252.548 75.3223C252.278 75.6932 251.973 76.0377 251.638 76.3511C251.312 76.6533 250.971 76.9712 250.608 77.2887C250.245 77.6065 249.88 77.8875 249.517 78.1663C249.16 78.4337 248.785 78.6766 248.396 78.8928C247.986 79.1119 247.585 79.3173 247.183 79.4993C246.17 80.0365 245.089 80.4334 243.97 80.6791C242.875 80.9221 241.756 81.0443 240.634 81.0433C238.384 81.0649 236.157 80.5877 234.114 79.6466C233.41 79.3351 232.731 78.9703 232.083 78.5559V95.0237H222.654V52.5229C222.751 51.8154 222.569 51.0982 222.144 50.5235C221.646 50.1307 221.019 49.9364 220.386 49.9792H218.166L218.774 47.8306L220.047 43.1383L220.38 41.9273H221.653ZM248.06 60.9371C248.064 60.0646 247.993 59.1936 247.848 58.3331C247.715 57.5724 247.52 56.8233 247.266 56.0937C247.037 55.4259 246.753 54.7779 246.418 54.1562C246.117 53.5786 245.762 53.0312 245.357 52.521C244.583 51.6252 243.62 50.9121 242.538 50.4326C241.472 49.9453 240.313 49.6973 239.142 49.7058C238.374 49.7055 237.609 49.8071 236.868 50.0081C236.149 50.2075 235.464 50.5139 234.836 50.9169C233.806 51.5414 232.876 52.3174 232.077 53.2185V69.1421C233.016 69.9842 234.057 70.7059 235.176 71.2904C236.487 71.9668 237.945 72.31 239.421 72.2903C240.613 72.3075 241.794 72.0595 242.877 71.5638C243.908 71.0177 244.816 70.2652 245.543 69.3533C245.941 68.8557 246.287 68.3178 246.574 67.7488C246.896 67.1173 247.162 66.4588 247.369 65.7805C247.612 65.0417 247.785 64.2812 247.885 63.51C248.008 62.6577 248.066 61.7979 248.06 60.9371Z" fill="white"/>
<path d="M269.185 54.9446C269.185 55.8531 269.216 56.7231 269.276 57.5483C269.336 58.3738 269.47 59.1759 269.61 59.9392C269.764 60.686 269.958 61.4239 270.192 62.1498C270.797 64.106 271.761 65.933 273.035 67.5377C273.437 68.022 273.854 68.4754 274.279 68.8939C274.698 69.3155 275.152 69.7007 275.637 70.0446C276.13 70.3878 276.649 70.6917 277.189 70.9533C278.858 71.7344 280.683 72.1278 282.526 72.104C284.277 72.1405 286.025 71.916 287.71 71.4375C289.238 70.9298 290.703 70.2494 292.076 69.4092L293.834 68.4093L294.501 70.2868L296.473 75.5837L296.993 77.0058L295.72 77.6723C293.781 78.6785 291.748 79.4936 289.651 80.1054C287.076 80.7637 284.426 81.079 281.769 81.0434C278.632 81.0786 275.523 80.4585 272.641 79.2221C269.901 78.0241 267.458 76.2381 265.487 73.991C263.42 71.6137 261.86 68.8412 260.902 65.8425C259.787 62.4127 259.244 58.8231 259.295 55.2177C259.258 51.6815 259.801 48.1634 260.902 44.8021C261.875 41.7438 263.453 38.9109 265.541 36.4714C267.573 34.1151 270.099 32.2341 272.94 30.9615C274.406 30.3071 275.942 29.8197 277.517 29.5082C279.182 29.1612 280.879 28.9884 282.58 28.9929C284.77 28.9713 286.957 29.1948 289.098 29.6594C291.003 30.1166 292.861 30.7551 294.645 31.5657L295.98 32.2322L295.495 33.7163L293.555 39.0754L292.887 40.8306L291.189 40.013C289.924 39.3573 288.593 38.8379 287.217 38.4629C286.759 38.3394 286.293 38.2479 285.822 38.1898C285.353 38.1136 284.835 38.053 284.27 38.0079C283.724 37.9691 283.133 37.9475 282.512 37.9475C281.576 37.9463 280.642 38.038 279.723 38.2209C278.846 38.3797 277.991 38.6439 277.178 39.0074C276.369 39.3678 275.605 39.8231 274.903 40.3635C274.194 40.9106 273.553 41.5409 272.994 42.241C272.403 42.9974 271.879 43.8039 271.428 44.651C270.934 45.5839 270.518 46.5558 270.185 47.5572C269.485 49.9561 269.148 52.4461 269.185 54.9446Z" fill="white"/>
<path d="M297.58 61.2702C297.565 58.5922 298.006 55.9311 298.884 53.4005C299.707 51.0448 300.985 48.8727 302.644 47.0072C304.26 45.1739 306.243 43.6993 308.466 42.6791C310.778 41.6205 313.295 41.0833 315.839 41.1058C317.937 41.0798 320.017 41.471 321.964 42.2565C322.637 42.555 323.294 42.8887 323.935 43.2564V41.9254H332.816V70.0797C332.816 71.1548 332.975 71.775 333.302 71.9569C333.839 72.324 334.474 72.5145 335.122 72.5014H337.338L336.731 74.6501L335.442 79.3735L335.106 80.5842H333.804C332.207 80.7357 330.6 80.4594 329.146 79.7837C327.692 79.1081 326.444 78.0577 325.533 76.7403L325.323 76.9518C324.913 77.3604 324.488 77.7383 324.05 78.1025C323.605 78.4444 323.138 78.7575 322.653 79.0401C321.564 79.6847 320.389 80.1736 319.16 80.4931C317.82 80.8652 316.431 81.0484 315.038 81.0376C313.846 81.0402 312.657 80.9185 311.491 80.6753C310.352 80.4343 309.237 80.0901 308.161 79.6466C306.059 78.6953 304.18 77.3131 302.648 75.5896C301.018 73.7715 299.76 71.653 298.944 69.3532C297.998 66.7648 297.535 64.0253 297.58 61.2702ZM316.378 72.2903C317.779 72.2595 319.157 71.9182 320.411 71.2904C320.811 71.0717 321.198 70.8373 321.564 70.5951C321.906 70.3684 322.23 70.115 322.532 69.8375C322.837 69.5565 323.116 69.2853 323.383 69.0199V51.7345C322.475 51.1832 321.51 50.7286 320.503 50.3783C319.195 49.9309 317.823 49.7058 316.44 49.7119C315.165 49.7001 313.902 49.9687 312.742 50.4984C311.621 51.0111 310.635 51.778 309.863 52.7381C308.946 53.7653 308.271 54.9849 307.887 56.3067C307.385 57.8508 307.139 59.4667 307.16 61.0901C307.14 62.6634 307.386 64.2288 307.887 65.7205C308.092 66.3981 308.377 67.0484 308.737 67.658C309.066 68.2324 309.441 68.7792 309.859 69.2932C310.255 69.7736 310.703 70.2102 311.194 70.5951C311.664 70.972 312.187 71.278 312.746 71.5038C313.297 71.7718 313.877 71.9753 314.475 72.1099C315.101 72.2322 315.74 72.2925 316.378 72.2903Z" fill="white"/>
<path d="M349.233 66.9919C349.09 68.5074 349.474 70.0254 350.322 71.2911C350.696 71.6895 351.154 72.0001 351.662 72.1992C352.173 72.3982 352.719 72.4811 353.265 72.4417C353.97 72.4424 354.675 72.3487 355.354 72.163C355.999 72.0112 356.628 71.8089 357.237 71.5584L358.993 70.8319L359.539 72.6491L361.025 77.5525L361.413 78.9458L360.082 79.5519C359.015 80 357.914 80.3445 356.783 80.5807C355.367 80.8938 353.926 81.0459 352.478 81.0341C350.801 81.0484 349.134 80.8046 347.534 80.3114C346.032 79.7739 344.657 78.9286 343.501 77.8297C342.285 76.6346 341.342 75.1886 340.742 73.5928C340.075 71.6667 339.755 69.6365 339.802 67.5983V27.124H349.233V66.9919Z" fill="white"/>
<path d="M371.18 66.9919C371.037 68.5074 371.424 70.0254 372.269 71.2911C372.643 71.6895 373.101 72.0001 373.612 72.1992C374.12 72.3982 374.666 72.4811 375.212 72.4417C375.917 72.4424 376.622 72.3487 377.305 72.163C377.946 72.0112 378.575 71.8089 379.184 71.5584L380.94 70.8319L381.486 72.6491L382.972 77.5525L383.363 78.9458L382.029 79.5519C380.966 80 379.861 80.3445 378.73 80.5807C377.317 80.8938 375.872 81.0459 374.425 81.0341C372.748 81.0484 371.081 80.8046 369.481 80.3114C367.979 79.7739 366.604 78.9286 365.448 77.8297C364.232 76.6346 363.289 75.1886 362.689 73.5928C362.022 71.6667 361.702 69.6365 361.752 67.5983V27.124H371.18V66.9919Z" fill="white"/>
</svg>
